<svg width="25" height="25" viewBox="0 0 25 25" fill="none" xmlns="http://www.w3.org/2000/svg">
<path d="M19.6429 15.625C18.3813 15.625 17.2217 16.0068 16.3064 16.6453L10.5873 13.5176C10.7566 12.8473 10.7566 12.1527 10.5873 11.4823L16.3064 8.35469C17.2217 8.99321 18.3813 9.375 19.6429 9.375C22.6015 9.375 25 7.27632 25 4.6875C25 2.09868 22.6015 0 19.6429 0C16.6842 0 14.2857 2.09868 14.2857 4.6875C14.2857 5.03701 14.3298 5.37744 14.4127 5.70513L8.69364 8.83276C7.77829 8.19429 6.61875 7.8125 5.35714 7.8125C2.39849 7.8125 0 9.91118 0 12.5C0 15.0888 2.39849 17.1875 5.35714 17.1875C6.61875 17.1875 7.77829 16.8057 8.69364 16.1672L14.4127 19.2949C14.3282 19.629 14.2856 19.9703 14.2857 20.3125C14.2857 22.9013 16.6842 25 19.6429 25C22.6015 25 25 22.9013 25 20.3125C25 17.7237 22.6015 15.625 19.6429 15.625Z" fill="white"/>
</svg>
